<svg width="32" height="32" viewBox="0 0 32 32" fill="none" xmlns="http://www.w3.org/2000/svg">
  <!-- Background circle with gradient -->
  <circle cx="16" cy="16" r="16" fill="url(#gradient1)"/>
  
  <!-- Community buildings/city -->
  <rect x="4" y="20" width="3" height="8" fill="white" opacity="0.9"/>
  <rect x="8" y="18" width="3" height="10" fill="white" opacity="0.9"/>
  <rect x="12" y="16" width="3" height="12" fill="white" opacity="0.9"/>
  <rect x="17" y="18" width="3" height="10" fill="white" opacity="0.9"/>
  <rect x="21" y="20" width="3" height="8" fill="white" opacity="0.9"/>
  <rect x="25" y="22" width="3" height="6" fill="white" opacity="0.9"/>
  
  <!-- Connection lines/network -->
  <circle cx="6" cy="16" r="1.5" fill="#FFD700"/>
  <circle cx="13.5" cy="12" r="1.5" fill="#FFD700"/>
  <circle cx="18.5" cy="14" r="1.5" fill="#FFD700"/>
  <circle cx="26.5" cy="18" r="1.5" fill="#FFD700"/>
  
  <!-- Connection lines -->
  <path d="M6 16L13.5 12L18.5 14L26.5 18" stroke="#FFD700" stroke-width="1" fill="none" opacity="0.8"/>
  <path d="M6 16L18.5 14" stroke="#FFD700" stroke-width="1" fill="none" opacity="0.6"/>
  
  <!-- Heart icon for civic care -->
  <path d="M16 25C16 25 10 20 10 16C10 14 11.5 12 13.5 12C14.5 12 15.5 12.5 16 13.5C16.5 12.5 17.5 12 18.5 12C20.5 12 22 14 22 16C22 20 16 25 16 25Z" fill="#FF6B6B" opacity="0.9"/>
  
  <!-- Gradient definitions -->
  <defs>
    <linearGradient id="gradient1" x1="0%" y1="0%" x2="100%" y2="100%">
      <stop offset="0%" stop-color="#667eea"/>
      <stop offset="100%" stop-color="#764ba2"/>
    </linearGradient>
  </defs>
</svg>
